<svg width="18" height="21" viewBox="0 0 18 21" fill="none" xmlns="http://www.w3.org/2000/svg">
<path d="M8.9999 1.07179e-09C11.3868 1.07179e-09 13.676 0.948211 15.3639 2.63604C17.0517 4.32387 17.9999 6.61305 17.9999 9V17H-0.000105239V9.05C-0.00669477 7.8639 0.221234 6.6882 0.670575 5.59049C1.11992 4.49278 1.78181 3.49472 2.61819 2.65369C3.45457 1.81266 4.44895 1.14525 5.54416 0.689836C6.63936 0.23442 7.81378 -1.83033e-05 8.9999 1.07179e-09ZM6.49989 18H11.4999C11.4999 18.663 11.2365 19.2989 10.7677 19.7678C10.2988 20.2366 9.66294 20.5 8.9999 20.5C8.33685 20.5 7.70097 20.2366 7.23213 19.7678C6.76329 19.2989 6.49989 18.663 6.49989 18Z" fill="white" fill-opacity="0.9"/>
</svg>
