<svg width="24" height="24" viewBox="0 0 24 24" fill="none" xmlns="http://www.w3.org/2000/svg">
<path d="M16.4962 23.9284C15.821 23.7924 15.2397 23.4783 14.7474 22.986C14.3254 22.5641 14.091 22.1749 13.8613 21.5045C13.8331 21.4248 13.4768 21.4201 7.25053 21.4201H0.672623L0.466331 21.3169C-0.115038 21.0216 -0.152546 20.2527 0.386627 19.8541L0.517904 19.7557L7.16614 19.7416L13.8144 19.7322L13.941 19.3853C14.1941 18.7008 14.7614 18.0069 15.3944 17.6271C16.1211 17.1911 17.1057 17.0411 17.9121 17.2427C18.9482 17.5005 19.7359 18.1288 20.1813 19.0524C20.2891 19.2868 20.4064 19.5306 20.4298 19.601L20.4814 19.7275L21.9817 19.7416C23.4163 19.7557 23.4867 19.7604 23.6133 19.8541C24.1524 20.2527 24.1149 21.0216 23.5336 21.3169C23.332 21.4154 23.2851 21.4201 21.8879 21.4201H20.4532L20.397 21.6217C20.2891 21.9827 19.9656 22.5359 19.6796 22.8501C18.8451 23.7596 17.6636 24.1628 16.4962 23.9284Z" fill="white" fill-opacity="0.9"/>
<path d="M5.31473 15.3485C4.94903 15.2688 4.52707 15.1 4.18481 14.8984C3.64564 14.5702 3.02676 13.8294 2.82985 13.2621C2.66106 12.7886 2.8064 12.8402 1.65304 12.8402C0.68253 12.8402 0.62158 12.8355 0.443419 12.7323C-0.128574 12.4088 -0.142639 11.6024 0.419976 11.2742C0.570007 11.1851 0.68253 11.1758 1.6296 11.1523L2.67513 11.1289L2.82985 10.7397C3.03145 10.2428 3.26587 9.88643 3.63157 9.5348C4.69585 8.51271 6.27587 8.28767 7.59332 8.97687C8.34348 9.36601 8.95767 10.088 9.2296 10.8851L9.31399 11.1289L16.3654 11.1523C23.3747 11.1758 23.4169 11.1758 23.581 11.2742C24.1295 11.593 24.1295 12.3994 23.581 12.7183C23.4169 12.8167 23.3747 12.8167 16.3701 12.8402L9.32337 12.8636L9.16865 13.2527C8.72324 14.3545 7.82775 15.1047 6.66501 15.3485C6.27587 15.4329 5.6945 15.4329 5.31473 15.3485Z" fill="white" fill-opacity="0.9"/>
<path d="M14.5786 6.72633C13.4815 6.43565 12.6235 5.66205 12.2391 4.6259L12.1125 4.28364L6.31753 4.2602C0.527281 4.23676 0.517904 4.23676 0.386627 4.1383C-0.152546 3.73978 -0.115038 2.97087 0.466331 2.68019L0.672623 2.57235H6.39723H12.1172L12.225 2.25823C12.5391 1.36273 13.3362 0.551628 14.2317 0.218747C16.0273 -0.447014 18.0434 0.504743 18.6529 2.30511L18.7373 2.54891L21.0768 2.57235C23.332 2.5958 23.421 2.60048 23.5804 2.69425C24.1149 3.00838 24.1337 3.75385 23.6133 4.1383C23.482 4.23207 23.421 4.23676 21.1096 4.2602L18.7373 4.28364L18.6622 4.51806C18.109 6.20122 16.2899 7.1858 14.5786 6.72633Z" fill="white" fill-opacity="0.9"/>
</svg>
