<svg width="15" height="14" viewBox="0 0 15 14" fill="none" xmlns="http://www.w3.org/2000/svg">
<path d="M3.57213 11.4583L0.416504 13.9375V0.833333C0.416504 0.645472 0.491132 0.465304 0.62397 0.332466C0.756808 0.199628 0.936976 0.125 1.12484 0.125H13.8748C14.0627 0.125 14.2429 0.199628 14.3757 0.332466C14.5085 0.465304 14.5832 0.645472 14.5832 0.833333V10.75C14.5832 10.9379 14.5085 11.118 14.3757 11.2509C14.2429 11.3837 14.0627 11.4583 13.8748 11.4583H3.57213ZM3.08196 10.0417H13.1665V1.54167H1.83317V11.0227L3.08196 10.0417ZM6.7915 5.08333H8.20817V6.5H6.7915V5.08333ZM3.95817 5.08333H5.37484V6.5H3.95817V5.08333ZM9.62484 5.08333H11.0415V6.5H9.62484V5.08333Z" fill="#716E79"/>
</svg>
