<svg width="17" height="18" viewBox="0 0 17 18" fill="none" xmlns="http://www.w3.org/2000/svg">
<path d="M12.6666 2.50001H16C16.221 2.50001 16.4329 2.58781 16.5892 2.74409C16.7455 2.90037 16.8333 3.11233 16.8333 3.33334V16.6667C16.8333 16.8877 16.7455 17.0997 16.5892 17.2559C16.4329 17.4122 16.221 17.5 16 17.5H0.999959C0.778946 17.5 0.566984 17.4122 0.410704 17.2559C0.254423 17.0997 0.166626 16.8877 0.166626 16.6667V3.33334C0.166626 3.11233 0.254423 2.90037 0.410704 2.74409C0.566984 2.58781 0.778946 2.50001 0.999959 2.50001H4.33329V0.833344H5.99996V2.50001H11V0.833344H12.6666V2.50001ZM11 4.16668H5.99996V5.83334H4.33329V4.16668H1.83329V7.50001H15.1666V4.16668H12.6666V5.83334H11V4.16668ZM15.1666 9.16668H1.83329V15.8333H15.1666V9.16668Z" fill="#2D8B93"/>
</svg>
