<svg width="18" height="16" viewBox="0 0 18 16" fill="none" xmlns="http://www.w3.org/2000/svg">
<path d="M9.4933 0.905463L17.4316 14.6414C17.5048 14.768 17.5433 14.9115 17.5433 15.0577C17.5433 15.2038 17.5048 15.3474 17.4316 15.4739C17.3585 15.6005 17.2533 15.7056 17.1266 15.7786C16.9999 15.8517 16.8562 15.8902 16.71 15.8902H0.833311C0.687033 15.8902 0.543332 15.8517 0.416653 15.7786C0.289973 15.7056 0.184778 15.6005 0.11164 15.4739C0.0385024 15.3474 -9.29025e-07 15.2038 0 15.0577C9.29059e-07 14.9115 0.0385061 14.768 0.111645 14.6414L8.04997 0.905463C8.12311 0.778919 8.22831 0.673838 8.35499 0.600779C8.48167 0.52772 8.62536 0.489258 8.77164 0.489258C8.91791 0.489258 9.06161 0.52772 9.18828 0.600779C9.31496 0.673838 9.42016 0.778919 9.4933 0.905463ZM7.9383 11.7277V13.3927H9.60497V11.7277H7.9383ZM7.9383 5.90036V10.0628H9.60497V5.90036H7.9383Z" fill="#B21111"/>
</svg>
