<svg width="14" height="16" viewBox="0 0 14 16" fill="none" xmlns="http://www.w3.org/2000/svg">
<path d="M3.25 6.50001H13C13.1989 6.50001 13.3897 6.57902 13.5303 6.71968C13.671 6.86033 13.75 7.05109 13.75 7.25001V14.75C13.75 14.9489 13.671 15.1397 13.5303 15.2803C13.3897 15.421 13.1989 15.5 13 15.5H1C0.801088 15.5 0.610322 15.421 0.46967 15.2803C0.329018 15.1397 0.25 14.9489 0.25 14.75V7.25001C0.25 7.05109 0.329018 6.86033 0.46967 6.71968C0.610322 6.57902 0.801088 6.50001 1 6.50001H1.75V5.75001C1.74957 4.56703 2.14869 3.41859 2.88264 2.49083C3.6166 1.56308 4.64238 0.910392 5.7937 0.638578C6.94502 0.366765 8.1544 0.491756 9.22579 0.99329C10.2972 1.49482 11.1678 2.3435 11.6965 3.40176L10.3547 4.07226C9.97712 3.31627 9.35522 2.70999 8.58987 2.35172C7.82452 1.99344 6.9606 1.90418 6.13816 2.09839C5.31572 2.2926 4.583 2.75891 4.05877 3.42171C3.53454 4.08451 3.24955 4.90495 3.25 5.75001V6.50001ZM1.75 8.00001V14H12.25V8.00001H1.75ZM5.5 10.25H8.5V11.75H5.5V10.25Z" fill="#716E79"/>
</svg>
