<svg width="20" height="22" viewBox="0 0 20 22" fill="none" xmlns="http://www.w3.org/2000/svg">
<path d="M18.0831 9.50007L19.2851 10.2211C19.3593 10.2655 19.4206 10.3283 19.4633 10.4035C19.5059 10.4787 19.5283 10.5636 19.5283 10.6501C19.5283 10.7365 19.5059 10.8214 19.4633 10.8966C19.4206 10.9718 19.3593 11.0347 19.2851 11.0791L10.0001 16.6501L0.715099 11.0791C0.640945 11.0347 0.579565 10.9718 0.536945 10.8966C0.494326 10.8214 0.471924 10.7365 0.471924 10.6501C0.471924 10.5636 0.494326 10.4787 0.536945 10.4035C0.579565 10.3283 0.640945 10.2655 0.715099 10.2211L1.9171 9.50007L10.0001 14.3501L18.0831 9.50007ZM18.0831 14.2001L19.2851 14.9211C19.3593 14.9655 19.4206 15.0283 19.4633 15.1035C19.5059 15.1787 19.5283 15.2636 19.5283 15.3501C19.5283 15.4365 19.5059 15.5214 19.4633 15.5966C19.4206 15.6718 19.3593 15.7347 19.2851 15.7791L10.5151 21.0411C10.3596 21.1345 10.1815 21.1839 10.0001 21.1839C9.81866 21.1839 9.64063 21.1345 9.4851 21.0411L0.715099 15.7791C0.640945 15.7347 0.579565 15.6718 0.536945 15.5966C0.494326 15.5214 0.471924 15.4365 0.471924 15.3501C0.471924 15.2636 0.494326 15.1787 0.536945 15.1035C0.579565 15.0283 0.640945 14.9655 0.715099 14.9211L1.9171 14.2001L10.0001 19.0501L18.0831 14.2001V14.2001ZM10.5141 0.30907L19.2851 5.57107C19.3593 5.61546 19.4206 5.67832 19.4633 5.75351C19.5059 5.82869 19.5283 5.91364 19.5283 6.00007C19.5283 6.0865 19.5059 6.17145 19.4633 6.24663C19.4206 6.32182 19.3593 6.38468 19.2851 6.42907L10.0001 12.0001L0.715099 6.42907C0.640945 6.38468 0.579565 6.32182 0.536945 6.24663C0.494326 6.17145 0.471924 6.0865 0.471924 6.00007C0.471924 5.91364 0.494326 5.82869 0.536945 5.75351C0.579565 5.67832 0.640945 5.61546 0.715099 5.57107L9.4851 0.30907C9.64063 0.215626 9.81866 0.16626 10.0001 0.16626C10.1815 0.16626 10.3596 0.215626 10.5151 0.30907H10.5141Z" fill="white"/>
</svg>
